<svg width="94" height="92" viewBox="0 0 94 92" fill="none" xmlns="http://www.w3.org/2000/svg">
<path d="M70.5001 7.66675H23.5001C19.18 7.66675 15.6667 11.1052 15.6667 15.3334V80.5001C15.6667 81.5167 16.0794 82.4918 16.8139 83.2107C17.5484 83.9296 18.5446 84.3334 19.5834 84.3334H74.4167C75.4555 84.3334 76.4517 83.9296 77.1862 83.2107C77.9208 82.4918 78.3334 81.5167 78.3334 80.5001V15.3334C78.3334 11.1052 74.8202 7.66675 70.5001 7.66675ZM70.5001 76.6667H23.5001V15.3334H70.5001V76.6667Z" fill="#752995" fill-opacity="0.45"/>
<path d="M31.3333 23H43.0833V30.6667H31.3333V23ZM50.9166 23H62.6666V30.6667H50.9166V23ZM31.3333 38.3333H43.0833V46H31.3333V38.3333ZM50.9166 38.4522H62.6666V46H50.9166V38.4522ZM31.3333 53.6667H43.0833V61.3333H31.3333V53.6667ZM50.9166 53.6667H62.6666V61.3333H50.9166V53.6667Z" fill="#752995" fill-opacity="0.45"/>
</svg>
